<mxfile host="Electron" agent="Mozilla/5.0 (Windows NT 10.0; Win64; x64) AppleWebKit/537.36 (KHTML, like Gecko) draw.io/26.2.15 Chrome/134.0.6998.205 Electron/35.2.1 Safari/537.36" version="26.2.15" pages="2">
  <diagram name="Page-1" id="tbn7fT1gsEIsz8sDN4KA">
    <mxGraphModel dx="3363" dy="2505" grid="1" gridSize="10" guides="1" tooltips="1" connect="1" arrows="1" fold="1" page="1" pageScale="1" pageWidth="850" pageHeight="1100" math="0" shadow="0">
      <root>
        <mxCell id="0" />
        <mxCell id="1" parent="0" />
        <mxCell id="qB5SZHq1FkYnNwqXYdCa-126" style="edgeStyle=orthogonalEdgeStyle;rounded=0;orthogonalLoop=1;jettySize=auto;html=1;exitX=0;exitY=1;exitDx=0;exitDy=0;" parent="1" source="qB5SZHq1FkYnNwqXYdCa-2" edge="1">
          <mxGeometry relative="1" as="geometry">
            <mxPoint x="-119.99999999999977" y="410" as="targetPoint" />
          </mxGeometry>
        </mxCell>
        <mxCell id="qB5SZHq1FkYnNwqXYdCa-127" style="edgeStyle=orthogonalEdgeStyle;rounded=0;orthogonalLoop=1;jettySize=auto;html=1;exitX=0.25;exitY=1;exitDx=0;exitDy=0;" parent="1" source="qB5SZHq1FkYnNwqXYdCa-2" edge="1">
          <mxGeometry relative="1" as="geometry">
            <mxPoint x="-19.999999999999773" y="530" as="targetPoint" />
          </mxGeometry>
        </mxCell>
        <mxCell id="qB5SZHq1FkYnNwqXYdCa-128" style="edgeStyle=orthogonalEdgeStyle;rounded=0;orthogonalLoop=1;jettySize=auto;html=1;exitX=0.75;exitY=1;exitDx=0;exitDy=0;entryX=0.5;entryY=0;entryDx=0;entryDy=0;" parent="1" source="qB5SZHq1FkYnNwqXYdCa-2" target="qB5SZHq1FkYnNwqXYdCa-121" edge="1">
          <mxGeometry relative="1" as="geometry" />
        </mxCell>
        <mxCell id="qB5SZHq1FkYnNwqXYdCa-129" style="edgeStyle=orthogonalEdgeStyle;rounded=0;orthogonalLoop=1;jettySize=auto;html=1;exitX=0;exitY=0.5;exitDx=0;exitDy=0;" parent="1" source="qB5SZHq1FkYnNwqXYdCa-2" edge="1">
          <mxGeometry relative="1" as="geometry">
            <mxPoint x="-189.99999999999977" y="330.38461538461524" as="targetPoint" />
          </mxGeometry>
        </mxCell>
        <mxCell id="qB5SZHq1FkYnNwqXYdCa-2" value="&lt;h3&gt;enrollment&lt;/h3&gt;" style="rounded=0;whiteSpace=wrap;html=1;" parent="1" vertex="1">
          <mxGeometry x="30" y="300" width="140" height="60" as="geometry" />
        </mxCell>
        <mxCell id="qB5SZHq1FkYnNwqXYdCa-22" style="edgeStyle=orthogonalEdgeStyle;rounded=0;orthogonalLoop=1;jettySize=auto;html=1;exitX=0;exitY=0;exitDx=0;exitDy=0;entryX=0.5;entryY=1;entryDx=0;entryDy=0;" parent="1" source="qB5SZHq1FkYnNwqXYdCa-6" target="qB5SZHq1FkYnNwqXYdCa-21" edge="1">
          <mxGeometry relative="1" as="geometry" />
        </mxCell>
        <mxCell id="qB5SZHq1FkYnNwqXYdCa-23" style="edgeStyle=orthogonalEdgeStyle;rounded=0;orthogonalLoop=1;jettySize=auto;html=1;exitX=0.5;exitY=0;exitDx=0;exitDy=0;" parent="1" source="qB5SZHq1FkYnNwqXYdCa-6" edge="1">
          <mxGeometry relative="1" as="geometry">
            <mxPoint x="100.29411764705878" y="-130" as="targetPoint" />
          </mxGeometry>
        </mxCell>
        <mxCell id="qB5SZHq1FkYnNwqXYdCa-24" style="edgeStyle=orthogonalEdgeStyle;rounded=0;orthogonalLoop=1;jettySize=auto;html=1;exitX=0.75;exitY=0;exitDx=0;exitDy=0;" parent="1" source="qB5SZHq1FkYnNwqXYdCa-6" edge="1">
          <mxGeometry relative="1" as="geometry">
            <mxPoint x="230" y="-130" as="targetPoint" />
          </mxGeometry>
        </mxCell>
        <mxCell id="qB5SZHq1FkYnNwqXYdCa-28" style="edgeStyle=orthogonalEdgeStyle;rounded=0;orthogonalLoop=1;jettySize=auto;html=1;exitX=0;exitY=0.5;exitDx=0;exitDy=0;" parent="1" source="qB5SZHq1FkYnNwqXYdCa-6" target="qB5SZHq1FkYnNwqXYdCa-29" edge="1">
          <mxGeometry relative="1" as="geometry">
            <mxPoint x="-10" y="69.5882352941178" as="targetPoint" />
          </mxGeometry>
        </mxCell>
        <mxCell id="qB5SZHq1FkYnNwqXYdCa-6" value="&lt;h3&gt;&lt;b&gt;&amp;nbsp; &amp;nbsp; &amp;nbsp; &amp;nbsp;students&lt;/b&gt;&lt;/h3&gt;" style="rounded=0;whiteSpace=wrap;html=1;align=left;fontStyle=2" parent="1" vertex="1">
          <mxGeometry x="40" y="40" width="120" height="60" as="geometry" />
        </mxCell>
        <mxCell id="qB5SZHq1FkYnNwqXYdCa-8" value="&lt;h3&gt;Belongs to&lt;/h3&gt;" style="rhombus;whiteSpace=wrap;html=1;" parent="1" vertex="1">
          <mxGeometry x="290" y="30" width="80" height="80" as="geometry" />
        </mxCell>
        <mxCell id="qB5SZHq1FkYnNwqXYdCa-36" style="edgeStyle=orthogonalEdgeStyle;rounded=0;orthogonalLoop=1;jettySize=auto;html=1;exitX=0;exitY=0;exitDx=0;exitDy=0;" parent="1" source="qB5SZHq1FkYnNwqXYdCa-15" target="qB5SZHq1FkYnNwqXYdCa-37" edge="1">
          <mxGeometry relative="1" as="geometry">
            <mxPoint x="470" y="-50" as="targetPoint" />
          </mxGeometry>
        </mxCell>
        <mxCell id="qB5SZHq1FkYnNwqXYdCa-41" style="edgeStyle=orthogonalEdgeStyle;rounded=0;orthogonalLoop=1;jettySize=auto;html=1;exitX=1;exitY=0;exitDx=0;exitDy=0;entryX=0.5;entryY=1;entryDx=0;entryDy=0;" parent="1" source="qB5SZHq1FkYnNwqXYdCa-15" target="qB5SZHq1FkYnNwqXYdCa-38" edge="1">
          <mxGeometry relative="1" as="geometry" />
        </mxCell>
        <mxCell id="qB5SZHq1FkYnNwqXYdCa-15" value="&lt;h3&gt;department&lt;/h3&gt;" style="rounded=0;whiteSpace=wrap;html=1;" parent="1" vertex="1">
          <mxGeometry x="520" y="40" width="120" height="60" as="geometry" />
        </mxCell>
        <mxCell id="qB5SZHq1FkYnNwqXYdCa-18" value="Text" style="text;html=1;align=center;verticalAlign=middle;resizable=0;points=[];autosize=1;strokeColor=none;fillColor=none;" parent="1" vertex="1">
          <mxGeometry x="-20" width="50" height="30" as="geometry" />
        </mxCell>
        <mxCell id="qB5SZHq1FkYnNwqXYdCa-19" value="&lt;h3&gt;student id&lt;/h3&gt;" style="ellipse;whiteSpace=wrap;html=1;" parent="1" vertex="1">
          <mxGeometry x="170" y="-210" width="120" height="80" as="geometry" />
        </mxCell>
        <mxCell id="qB5SZHq1FkYnNwqXYdCa-20" value="&lt;h3&gt;Email&lt;/h3&gt;" style="ellipse;whiteSpace=wrap;html=1;" parent="1" vertex="1">
          <mxGeometry x="40" y="-210" width="120" height="80" as="geometry" />
        </mxCell>
        <mxCell id="qB5SZHq1FkYnNwqXYdCa-21" value="&lt;h3&gt;Name&lt;/h3&gt;" style="ellipse;whiteSpace=wrap;html=1;fontStyle=1" parent="1" vertex="1">
          <mxGeometry x="-30" y="-90" width="100" height="80" as="geometry" />
        </mxCell>
        <mxCell id="qB5SZHq1FkYnNwqXYdCa-29" value="&lt;h3&gt;Department&lt;/h3&gt;" style="ellipse;whiteSpace=wrap;html=1;" parent="1" vertex="1">
          <mxGeometry x="-130" y="30" width="110" height="80" as="geometry" />
        </mxCell>
        <mxCell id="qB5SZHq1FkYnNwqXYdCa-32" value="" style="line;strokeWidth=1;rotatable=0;dashed=0;labelPosition=right;align=left;verticalAlign=middle;spacingTop=0;spacingLeft=6;points=[];portConstraint=eastwest;" parent="1" vertex="1">
          <mxGeometry x="180" y="-160" width="90" height="10" as="geometry" />
        </mxCell>
        <mxCell id="qB5SZHq1FkYnNwqXYdCa-38" value="&lt;h3&gt;Id professor&lt;/h3&gt;" style="ellipse;whiteSpace=wrap;html=1;" parent="1" vertex="1">
          <mxGeometry x="660" y="-195" width="120" height="80" as="geometry" />
        </mxCell>
        <mxCell id="qB5SZHq1FkYnNwqXYdCa-39" value="&lt;h3&gt;Name&lt;/h3&gt;" style="ellipse;whiteSpace=wrap;html=1;" parent="1" vertex="1">
          <mxGeometry x="520" y="-210" width="110" height="70" as="geometry" />
        </mxCell>
        <mxCell id="qB5SZHq1FkYnNwqXYdCa-40" style="edgeStyle=orthogonalEdgeStyle;rounded=0;orthogonalLoop=1;jettySize=auto;html=1;entryX=0.566;entryY=1.039;entryDx=0;entryDy=0;entryPerimeter=0;" parent="1" source="qB5SZHq1FkYnNwqXYdCa-15" target="qB5SZHq1FkYnNwqXYdCa-39" edge="1">
          <mxGeometry relative="1" as="geometry">
            <Array as="points">
              <mxPoint x="580" y="-70" />
              <mxPoint x="582" y="-70" />
            </Array>
          </mxGeometry>
        </mxCell>
        <mxCell id="qB5SZHq1FkYnNwqXYdCa-42" value="" style="endArrow=none;html=1;rounded=0;" parent="1" source="qB5SZHq1FkYnNwqXYdCa-37" edge="1">
          <mxGeometry relative="1" as="geometry">
            <mxPoint x="400" y="-110" as="sourcePoint" />
            <mxPoint x="480" y="-109.59" as="targetPoint" />
            <Array as="points" />
          </mxGeometry>
        </mxCell>
        <mxCell id="qB5SZHq1FkYnNwqXYdCa-44" value="" style="endArrow=none;html=1;rounded=0;" parent="1" target="qB5SZHq1FkYnNwqXYdCa-37" edge="1">
          <mxGeometry relative="1" as="geometry">
            <mxPoint x="400" y="-110" as="sourcePoint" />
            <mxPoint x="480" y="-109.59" as="targetPoint" />
            <Array as="points" />
          </mxGeometry>
        </mxCell>
        <mxCell id="qB5SZHq1FkYnNwqXYdCa-45" value="Text" style="edgeLabel;html=1;align=center;verticalAlign=middle;resizable=0;points=[];" parent="qB5SZHq1FkYnNwqXYdCa-44" vertex="1" connectable="0">
          <mxGeometry x="-0.15" y="4" relative="1" as="geometry">
            <mxPoint as="offset" />
          </mxGeometry>
        </mxCell>
        <mxCell id="qB5SZHq1FkYnNwqXYdCa-37" value="&lt;h2&gt;Id&lt;/h2&gt;" style="ellipse;whiteSpace=wrap;html=1;" parent="1" vertex="1">
          <mxGeometry x="380" y="-160" width="120" height="70" as="geometry" />
        </mxCell>
        <mxCell id="qB5SZHq1FkYnNwqXYdCa-57" value="" style="shape=link;html=1;rounded=0;exitX=1;exitY=0.5;exitDx=0;exitDy=0;" parent="1" source="qB5SZHq1FkYnNwqXYdCa-6" edge="1">
          <mxGeometry relative="1" as="geometry">
            <mxPoint x="170" y="69.41" as="sourcePoint" />
            <mxPoint x="290" y="69.41" as="targetPoint" />
          </mxGeometry>
        </mxCell>
        <mxCell id="qB5SZHq1FkYnNwqXYdCa-58" value="1" style="resizable=0;html=1;whiteSpace=wrap;align=right;verticalAlign=bottom;" parent="qB5SZHq1FkYnNwqXYdCa-57" connectable="0" vertex="1">
          <mxGeometry x="1" relative="1" as="geometry" />
        </mxCell>
        <mxCell id="qB5SZHq1FkYnNwqXYdCa-61" value="" style="shape=link;html=1;rounded=0;exitX=1;exitY=0.5;exitDx=0;exitDy=0;" parent="1" source="qB5SZHq1FkYnNwqXYdCa-8" edge="1">
          <mxGeometry relative="1" as="geometry">
            <mxPoint x="380" y="69" as="sourcePoint" />
            <mxPoint x="520" y="69.41" as="targetPoint" />
          </mxGeometry>
        </mxCell>
        <mxCell id="qB5SZHq1FkYnNwqXYdCa-62" value="1" style="resizable=0;html=1;whiteSpace=wrap;align=right;verticalAlign=bottom;" parent="qB5SZHq1FkYnNwqXYdCa-61" connectable="0" vertex="1">
          <mxGeometry x="1" relative="1" as="geometry" />
        </mxCell>
        <mxCell id="qB5SZHq1FkYnNwqXYdCa-63" value="&lt;h3&gt;Id student&lt;/h3&gt;" style="ellipse;whiteSpace=wrap;html=1;" parent="1" vertex="1">
          <mxGeometry x="820" y="-180" width="120" height="80" as="geometry" />
        </mxCell>
        <mxCell id="qB5SZHq1FkYnNwqXYdCa-64" style="edgeStyle=orthogonalEdgeStyle;rounded=0;orthogonalLoop=1;jettySize=auto;html=1;exitX=1;exitY=0.25;exitDx=0;exitDy=0;entryX=0.417;entryY=1.125;entryDx=0;entryDy=0;entryPerimeter=0;" parent="1" source="qB5SZHq1FkYnNwqXYdCa-15" target="qB5SZHq1FkYnNwqXYdCa-63" edge="1">
          <mxGeometry relative="1" as="geometry">
            <Array as="points">
              <mxPoint x="640" />
              <mxPoint x="870" />
            </Array>
          </mxGeometry>
        </mxCell>
        <mxCell id="qB5SZHq1FkYnNwqXYdCa-65" value="" style="line;strokeWidth=1;fillColor=none;align=left;verticalAlign=middle;spacingTop=-1;spacingLeft=3;spacingRight=3;rotatable=0;labelPosition=right;points=[];portConstraint=eastwest;strokeColor=inherit;" parent="1" vertex="1">
          <mxGeometry x="395" y="-115" width="90" height="8" as="geometry" />
        </mxCell>
        <mxCell id="qB5SZHq1FkYnNwqXYdCa-84" style="edgeStyle=orthogonalEdgeStyle;rounded=0;orthogonalLoop=1;jettySize=auto;html=1;entryX=0.5;entryY=1;entryDx=0;entryDy=0;" parent="1" source="qB5SZHq1FkYnNwqXYdCa-66" target="qB5SZHq1FkYnNwqXYdCa-80" edge="1">
          <mxGeometry relative="1" as="geometry" />
        </mxCell>
        <mxCell id="qB5SZHq1FkYnNwqXYdCa-85" style="edgeStyle=orthogonalEdgeStyle;rounded=0;orthogonalLoop=1;jettySize=auto;html=1;exitX=0.75;exitY=0;exitDx=0;exitDy=0;" parent="1" source="qB5SZHq1FkYnNwqXYdCa-66" edge="1">
          <mxGeometry relative="1" as="geometry">
            <mxPoint x="1140.294117647059" y="-200" as="targetPoint" />
          </mxGeometry>
        </mxCell>
        <mxCell id="qB5SZHq1FkYnNwqXYdCa-86" style="edgeStyle=orthogonalEdgeStyle;rounded=0;orthogonalLoop=1;jettySize=auto;html=1;exitX=1;exitY=0;exitDx=0;exitDy=0;" parent="1" source="qB5SZHq1FkYnNwqXYdCa-66" edge="1">
          <mxGeometry relative="1" as="geometry">
            <mxPoint x="1280" y="-140" as="targetPoint" />
          </mxGeometry>
        </mxCell>
        <mxCell id="qB5SZHq1FkYnNwqXYdCa-66" value="&lt;h3&gt;Professors&lt;/h3&gt;" style="rounded=0;whiteSpace=wrap;html=1;" parent="1" vertex="1">
          <mxGeometry x="1050" y="39" width="120" height="60" as="geometry" />
        </mxCell>
        <mxCell id="qB5SZHq1FkYnNwqXYdCa-67" value="&lt;h3&gt;Belogs to&lt;/h3&gt;" style="rhombus;whiteSpace=wrap;html=1;" parent="1" vertex="1">
          <mxGeometry x="810" y="29" width="80" height="80" as="geometry" />
        </mxCell>
        <mxCell id="qB5SZHq1FkYnNwqXYdCa-70" value="Text" style="text;html=1;align=center;verticalAlign=middle;resizable=0;points=[];autosize=1;strokeColor=none;fillColor=none;" parent="1" vertex="1">
          <mxGeometry x="1675" y="178" width="50" height="30" as="geometry" />
        </mxCell>
        <mxCell id="qB5SZHq1FkYnNwqXYdCa-73" value="" style="shape=link;html=1;rounded=0;entryX=0;entryY=0.5;entryDx=0;entryDy=0;" parent="1" target="qB5SZHq1FkYnNwqXYdCa-67" edge="1">
          <mxGeometry relative="1" as="geometry">
            <mxPoint x="640" y="68.41" as="sourcePoint" />
            <mxPoint x="800" y="68.41" as="targetPoint" />
          </mxGeometry>
        </mxCell>
        <mxCell id="qB5SZHq1FkYnNwqXYdCa-74" value="1" style="resizable=0;html=1;whiteSpace=wrap;align=right;verticalAlign=bottom;" parent="qB5SZHq1FkYnNwqXYdCa-73" connectable="0" vertex="1">
          <mxGeometry x="1" relative="1" as="geometry" />
        </mxCell>
        <mxCell id="qB5SZHq1FkYnNwqXYdCa-77" value="&lt;h3&gt;professors-id&lt;/h3&gt;" style="ellipse;whiteSpace=wrap;html=1;" parent="1" vertex="1">
          <mxGeometry x="1220" y="-220" width="120" height="80" as="geometry" />
        </mxCell>
        <mxCell id="qB5SZHq1FkYnNwqXYdCa-79" value="&lt;h3&gt;Name&lt;/h3&gt;" style="ellipse;whiteSpace=wrap;html=1;" parent="1" vertex="1">
          <mxGeometry x="1080" y="-280" width="120" height="80" as="geometry" />
        </mxCell>
        <mxCell id="qB5SZHq1FkYnNwqXYdCa-80" value="&lt;h3&gt;Email&lt;/h3&gt;" style="ellipse;whiteSpace=wrap;html=1;" parent="1" vertex="1">
          <mxGeometry x="1000" y="-165" width="120" height="80" as="geometry" />
        </mxCell>
        <mxCell id="qB5SZHq1FkYnNwqXYdCa-82" value="Text" style="text;html=1;align=center;verticalAlign=middle;resizable=0;points=[];autosize=1;strokeColor=none;fillColor=none;" parent="1" vertex="1">
          <mxGeometry x="780" y="315" width="50" height="30" as="geometry" />
        </mxCell>
        <mxCell id="qB5SZHq1FkYnNwqXYdCa-88" value="" style="endArrow=none;html=1;rounded=0;" parent="1" edge="1">
          <mxGeometry relative="1" as="geometry">
            <mxPoint x="1230" y="-165" as="sourcePoint" />
            <mxPoint x="1330" y="-165" as="targetPoint" />
            <Array as="points">
              <mxPoint x="1290" y="-165" />
            </Array>
          </mxGeometry>
        </mxCell>
        <mxCell id="qB5SZHq1FkYnNwqXYdCa-89" value="&lt;h3&gt;Gives&lt;/h3&gt;" style="rhombus;whiteSpace=wrap;html=1;" parent="1" vertex="1">
          <mxGeometry x="1070" y="260" width="80" height="80" as="geometry" />
        </mxCell>
        <mxCell id="qB5SZHq1FkYnNwqXYdCa-100" value="" style="shape=link;html=1;rounded=0;exitX=0.5;exitY=1;exitDx=0;exitDy=0;" parent="1" source="qB5SZHq1FkYnNwqXYdCa-66" edge="1">
          <mxGeometry relative="1" as="geometry">
            <mxPoint x="1100" y="120" as="sourcePoint" />
            <mxPoint x="1110" y="260" as="targetPoint" />
          </mxGeometry>
        </mxCell>
        <mxCell id="qB5SZHq1FkYnNwqXYdCa-101" value="1" style="resizable=0;html=1;whiteSpace=wrap;align=right;verticalAlign=bottom;" parent="qB5SZHq1FkYnNwqXYdCa-100" connectable="0" vertex="1">
          <mxGeometry x="1" relative="1" as="geometry">
            <mxPoint y="21" as="offset" />
          </mxGeometry>
        </mxCell>
        <mxCell id="qB5SZHq1FkYnNwqXYdCa-102" value="" style="shape=link;html=1;rounded=0;entryX=0.5;entryY=1;entryDx=0;entryDy=0;exitX=1;exitY=0.5;exitDx=0;exitDy=0;" parent="1" source="qB5SZHq1FkYnNwqXYdCa-103" target="qB5SZHq1FkYnNwqXYdCa-89" edge="1">
          <mxGeometry width="100" relative="1" as="geometry">
            <mxPoint x="880" y="470" as="sourcePoint" />
            <mxPoint x="1050" y="440" as="targetPoint" />
          </mxGeometry>
        </mxCell>
        <mxCell id="qB5SZHq1FkYnNwqXYdCa-116" style="edgeStyle=orthogonalEdgeStyle;rounded=0;orthogonalLoop=1;jettySize=auto;html=1;exitX=0;exitY=1;exitDx=0;exitDy=0;" parent="1" source="qB5SZHq1FkYnNwqXYdCa-103" edge="1">
          <mxGeometry relative="1" as="geometry">
            <mxPoint x="650" y="610" as="targetPoint" />
          </mxGeometry>
        </mxCell>
        <mxCell id="qB5SZHq1FkYnNwqXYdCa-117" style="edgeStyle=orthogonalEdgeStyle;rounded=0;orthogonalLoop=1;jettySize=auto;html=1;exitX=0.5;exitY=1;exitDx=0;exitDy=0;" parent="1" source="qB5SZHq1FkYnNwqXYdCa-103" target="qB5SZHq1FkYnNwqXYdCa-114" edge="1">
          <mxGeometry relative="1" as="geometry" />
        </mxCell>
        <mxCell id="qB5SZHq1FkYnNwqXYdCa-118" style="edgeStyle=orthogonalEdgeStyle;rounded=0;orthogonalLoop=1;jettySize=auto;html=1;exitX=1;exitY=1;exitDx=0;exitDy=0;" parent="1" source="qB5SZHq1FkYnNwqXYdCa-103" edge="1">
          <mxGeometry relative="1" as="geometry">
            <mxPoint x="920" y="760" as="targetPoint" />
          </mxGeometry>
        </mxCell>
        <mxCell id="qB5SZHq1FkYnNwqXYdCa-119" style="edgeStyle=orthogonalEdgeStyle;rounded=0;orthogonalLoop=1;jettySize=auto;html=1;exitX=1;exitY=0.75;exitDx=0;exitDy=0;" parent="1" source="qB5SZHq1FkYnNwqXYdCa-103" edge="1">
          <mxGeometry relative="1" as="geometry">
            <mxPoint x="1060" y="570" as="targetPoint" />
          </mxGeometry>
        </mxCell>
        <mxCell id="qB5SZHq1FkYnNwqXYdCa-103" value="&lt;h3&gt;cources&lt;/h3&gt;" style="rounded=0;whiteSpace=wrap;html=1;" parent="1" vertex="1">
          <mxGeometry x="730" y="425" width="140" height="60" as="geometry" />
        </mxCell>
        <mxCell id="qB5SZHq1FkYnNwqXYdCa-106" value="&lt;h3&gt;Has&lt;/h3&gt;" style="rhombus;whiteSpace=wrap;html=1;" parent="1" vertex="1">
          <mxGeometry x="392.5" y="410" width="95" height="90" as="geometry" />
        </mxCell>
        <mxCell id="qB5SZHq1FkYnNwqXYdCa-110" value="" style="shape=link;html=1;rounded=0;exitX=0;exitY=0.5;exitDx=0;exitDy=0;entryX=0.75;entryY=1;entryDx=0;entryDy=0;" parent="1" source="qB5SZHq1FkYnNwqXYdCa-106" target="qB5SZHq1FkYnNwqXYdCa-6" edge="1">
          <mxGeometry relative="1" as="geometry">
            <mxPoint x="200" y="300" as="sourcePoint" />
            <mxPoint x="360" y="300" as="targetPoint" />
          </mxGeometry>
        </mxCell>
        <mxCell id="qB5SZHq1FkYnNwqXYdCa-111" value="1" style="resizable=0;html=1;whiteSpace=wrap;align=right;verticalAlign=bottom;" parent="qB5SZHq1FkYnNwqXYdCa-110" connectable="0" vertex="1">
          <mxGeometry x="1" relative="1" as="geometry" />
        </mxCell>
        <mxCell id="qB5SZHq1FkYnNwqXYdCa-112" value="&lt;h3&gt;cource name&lt;/h3&gt;" style="ellipse;whiteSpace=wrap;html=1;" parent="1" vertex="1">
          <mxGeometry x="860" y="760" width="120" height="80" as="geometry" />
        </mxCell>
        <mxCell id="qB5SZHq1FkYnNwqXYdCa-113" value="&lt;h3&gt;professor-id&lt;/h3&gt;" style="ellipse;whiteSpace=wrap;html=1;" parent="1" vertex="1">
          <mxGeometry x="590" y="610" width="120" height="80" as="geometry" />
        </mxCell>
        <mxCell id="qB5SZHq1FkYnNwqXYdCa-114" value="&lt;h3&gt;cources-id&lt;/h3&gt;" style="ellipse;whiteSpace=wrap;html=1;" parent="1" vertex="1">
          <mxGeometry x="740" y="630" width="120" height="80" as="geometry" />
        </mxCell>
        <mxCell id="qB5SZHq1FkYnNwqXYdCa-115" value="&lt;h3&gt;department&lt;/h3&gt;" style="ellipse;whiteSpace=wrap;html=1;" parent="1" vertex="1">
          <mxGeometry x="1000" y="570" width="120" height="80" as="geometry" />
        </mxCell>
        <mxCell id="qB5SZHq1FkYnNwqXYdCa-120" value="" style="shape=link;html=1;rounded=0;entryX=0;entryY=0.5;entryDx=0;entryDy=0;" parent="1" target="qB5SZHq1FkYnNwqXYdCa-103" edge="1">
          <mxGeometry width="100" relative="1" as="geometry">
            <mxPoint x="490" y="455" as="sourcePoint" />
            <mxPoint x="660" y="454.23" as="targetPoint" />
          </mxGeometry>
        </mxCell>
        <mxCell id="qB5SZHq1FkYnNwqXYdCa-121" value="&lt;h3&gt;std_id&lt;/h3&gt;" style="ellipse;whiteSpace=wrap;html=1;" parent="1" vertex="1">
          <mxGeometry x="100" y="520" width="120" height="80" as="geometry" />
        </mxCell>
        <mxCell id="qB5SZHq1FkYnNwqXYdCa-122" value="&lt;h2&gt;Id&lt;/h2&gt;" style="ellipse;whiteSpace=wrap;html=1;" parent="1" vertex="1">
          <mxGeometry x="-80" y="530" width="120" height="80" as="geometry" />
        </mxCell>
        <mxCell id="qB5SZHq1FkYnNwqXYdCa-123" value="&lt;h3&gt;Birth-day&lt;/h3&gt;" style="ellipse;whiteSpace=wrap;html=1;" parent="1" vertex="1">
          <mxGeometry x="-300" y="280" width="120" height="80" as="geometry" />
        </mxCell>
        <mxCell id="qB5SZHq1FkYnNwqXYdCa-124" value="&lt;h2&gt;ssn&lt;/h2&gt;" style="ellipse;whiteSpace=wrap;html=1;" parent="1" vertex="1">
          <mxGeometry x="-180" y="410" width="120" height="80" as="geometry" />
        </mxCell>
        <mxCell id="qB5SZHq1FkYnNwqXYdCa-130" value="" style="line;strokeWidth=1;rotatable=0;dashed=0;labelPosition=right;align=left;verticalAlign=middle;spacingTop=0;spacingLeft=6;points=[];portConstraint=eastwest;" parent="1" vertex="1">
          <mxGeometry x="755" y="660" width="90" height="60" as="geometry" />
        </mxCell>
        <mxCell id="qB5SZHq1FkYnNwqXYdCa-131" value="" style="endArrow=none;html=1;rounded=0;" parent="1" edge="1">
          <mxGeometry relative="1" as="geometry">
            <mxPoint x="-60" y="590" as="sourcePoint" />
            <mxPoint x="10" y="590" as="targetPoint" />
            <Array as="points">
              <mxPoint x="20" y="590" />
            </Array>
          </mxGeometry>
        </mxCell>
        <mxCell id="qB5SZHq1FkYnNwqXYdCa-132" value="M" style="text;html=1;align=center;verticalAlign=middle;resizable=0;points=[];autosize=1;strokeColor=none;fillColor=none;" parent="1" vertex="1">
          <mxGeometry x="865" y="410" width="30" height="30" as="geometry" />
        </mxCell>
        <mxCell id="VL-wNMFl7S3tXc-pe_jw-1" value="" style="endArrow=none;html=1;rounded=0;entryX=0;entryY=0.5;entryDx=0;entryDy=0;" edge="1" parent="1" target="qB5SZHq1FkYnNwqXYdCa-106">
          <mxGeometry relative="1" as="geometry">
            <mxPoint x="170" y="329.09000000000003" as="sourcePoint" />
            <mxPoint x="330" y="329.09000000000003" as="targetPoint" />
          </mxGeometry>
        </mxCell>
        <mxCell id="VL-wNMFl7S3tXc-pe_jw-2" value="" style="endArrow=none;html=1;rounded=0;" edge="1" parent="1">
          <mxGeometry relative="1" as="geometry">
            <mxPoint x="890" y="68.09" as="sourcePoint" />
            <mxPoint x="1050" y="68.09" as="targetPoint" />
          </mxGeometry>
        </mxCell>
        <mxCell id="VL-wNMFl7S3tXc-pe_jw-3" value="M" style="text;html=1;align=center;verticalAlign=middle;resizable=0;points=[];autosize=1;strokeColor=none;fillColor=none;" vertex="1" parent="1">
          <mxGeometry x="1020" y="39" width="30" height="30" as="geometry" />
        </mxCell>
      </root>
    </mxGraphModel>
  </diagram>
  <diagram id="PTqDaM6qseNOtMOx7u4P" name="Page-2">
    <mxGraphModel dx="1005" dy="562" grid="1" gridSize="10" guides="1" tooltips="1" connect="1" arrows="1" fold="1" page="1" pageScale="1" pageWidth="850" pageHeight="1100" math="0" shadow="0">
      <root>
        <mxCell id="0" />
        <mxCell id="1" parent="0" />
        <mxCell id="9Jtg441duoRpAcbk1e0Q-11" value="" style="endArrow=none;html=1;rounded=0;" parent="1" edge="1">
          <mxGeometry relative="1" as="geometry">
            <mxPoint x="40" y="360" as="sourcePoint" />
            <mxPoint x="480" y="360" as="targetPoint" />
          </mxGeometry>
        </mxCell>
        <mxCell id="9Jtg441duoRpAcbk1e0Q-12" value="" style="endArrow=none;html=1;rounded=0;" parent="1" edge="1">
          <mxGeometry relative="1" as="geometry">
            <mxPoint x="40" y="430" as="sourcePoint" />
            <mxPoint x="40" y="360" as="targetPoint" />
          </mxGeometry>
        </mxCell>
        <mxCell id="9Jtg441duoRpAcbk1e0Q-13" value="" style="endArrow=none;html=1;rounded=0;" parent="1" edge="1">
          <mxGeometry relative="1" as="geometry">
            <mxPoint x="38.95" y="430" as="sourcePoint" />
            <mxPoint x="478.95" y="430" as="targetPoint" />
          </mxGeometry>
        </mxCell>
        <mxCell id="9Jtg441duoRpAcbk1e0Q-14" value="" style="endArrow=none;html=1;rounded=0;" parent="1" edge="1">
          <mxGeometry relative="1" as="geometry">
            <mxPoint x="480" y="430" as="sourcePoint" />
            <mxPoint x="480" y="360" as="targetPoint" />
            <Array as="points" />
          </mxGeometry>
        </mxCell>
        <mxCell id="9Jtg441duoRpAcbk1e0Q-15" value="" style="endArrow=none;html=1;rounded=0;" parent="1" edge="1">
          <mxGeometry relative="1" as="geometry">
            <mxPoint x="130" y="430" as="sourcePoint" />
            <mxPoint x="130" y="360" as="targetPoint" />
          </mxGeometry>
        </mxCell>
        <mxCell id="9Jtg441duoRpAcbk1e0Q-16" value="" style="endArrow=none;html=1;rounded=0;" parent="1" edge="1">
          <mxGeometry relative="1" as="geometry">
            <mxPoint x="240" y="430" as="sourcePoint" />
            <mxPoint x="240" y="360" as="targetPoint" />
          </mxGeometry>
        </mxCell>
        <mxCell id="9Jtg441duoRpAcbk1e0Q-19" value="" style="endArrow=none;html=1;rounded=0;" parent="1" edge="1">
          <mxGeometry relative="1" as="geometry">
            <mxPoint x="360" y="430" as="sourcePoint" />
            <mxPoint x="360" y="360" as="targetPoint" />
          </mxGeometry>
        </mxCell>
        <mxCell id="9Jtg441duoRpAcbk1e0Q-24" value="&lt;h3&gt;Name&lt;/h3&gt;" style="text;html=1;align=center;verticalAlign=middle;resizable=0;points=[];autosize=1;strokeColor=none;fillColor=none;" parent="1" vertex="1">
          <mxGeometry x="50" y="363" width="60" height="60" as="geometry" />
        </mxCell>
        <mxCell id="9Jtg441duoRpAcbk1e0Q-120" style="edgeStyle=orthogonalEdgeStyle;rounded=0;orthogonalLoop=1;jettySize=auto;html=1;" parent="1" source="9Jtg441duoRpAcbk1e0Q-25" target="9Jtg441duoRpAcbk1e0Q-41" edge="1">
          <mxGeometry relative="1" as="geometry">
            <Array as="points">
              <mxPoint x="180" y="490" />
              <mxPoint x="90" y="490" />
            </Array>
          </mxGeometry>
        </mxCell>
        <mxCell id="9Jtg441duoRpAcbk1e0Q-25" value="&lt;h3&gt;student-Id&lt;/h3&gt;" style="text;html=1;align=center;verticalAlign=middle;resizable=0;points=[];autosize=1;strokeColor=none;fillColor=none;" parent="1" vertex="1">
          <mxGeometry x="135" y="363" width="90" height="60" as="geometry" />
        </mxCell>
        <mxCell id="9Jtg441duoRpAcbk1e0Q-26" value="&lt;h3&gt;email&lt;/h3&gt;" style="text;html=1;align=center;verticalAlign=middle;resizable=0;points=[];autosize=1;strokeColor=none;fillColor=none;" parent="1" vertex="1">
          <mxGeometry x="270" y="363" width="60" height="60" as="geometry" />
        </mxCell>
        <mxCell id="9Jtg441duoRpAcbk1e0Q-27" value="&lt;h3&gt;department&lt;/h3&gt;" style="text;html=1;align=center;verticalAlign=middle;resizable=0;points=[];autosize=1;strokeColor=none;fillColor=none;" parent="1" vertex="1">
          <mxGeometry x="375" y="363" width="100" height="60" as="geometry" />
        </mxCell>
        <mxCell id="9Jtg441duoRpAcbk1e0Q-29" value="" style="endArrow=none;html=1;rounded=0;" parent="1" edge="1">
          <mxGeometry relative="1" as="geometry">
            <mxPoint x="40" y="505" as="sourcePoint" />
            <mxPoint x="240" y="505" as="targetPoint" />
          </mxGeometry>
        </mxCell>
        <mxCell id="9Jtg441duoRpAcbk1e0Q-30" value="" style="endArrow=none;html=1;rounded=0;" parent="1" edge="1">
          <mxGeometry relative="1" as="geometry">
            <mxPoint x="40" y="575" as="sourcePoint" />
            <mxPoint x="40" y="505" as="targetPoint" />
          </mxGeometry>
        </mxCell>
        <mxCell id="9Jtg441duoRpAcbk1e0Q-31" value="" style="endArrow=none;html=1;rounded=0;" parent="1" edge="1">
          <mxGeometry relative="1" as="geometry">
            <mxPoint x="40" y="575" as="sourcePoint" />
            <mxPoint x="240" y="575" as="targetPoint" />
          </mxGeometry>
        </mxCell>
        <mxCell id="9Jtg441duoRpAcbk1e0Q-33" value="" style="endArrow=none;html=1;rounded=0;" parent="1" edge="1">
          <mxGeometry relative="1" as="geometry">
            <mxPoint x="130" y="575" as="sourcePoint" />
            <mxPoint x="130" y="505" as="targetPoint" />
          </mxGeometry>
        </mxCell>
        <mxCell id="9Jtg441duoRpAcbk1e0Q-34" value="" style="endArrow=none;html=1;rounded=0;" parent="1" edge="1">
          <mxGeometry relative="1" as="geometry">
            <mxPoint x="240" y="575" as="sourcePoint" />
            <mxPoint x="240" y="505" as="targetPoint" />
          </mxGeometry>
        </mxCell>
        <mxCell id="9Jtg441duoRpAcbk1e0Q-41" value="&lt;h3&gt;student-Id&lt;/h3&gt;" style="text;html=1;align=center;verticalAlign=middle;resizable=0;points=[];autosize=1;strokeColor=none;fillColor=none;" parent="1" vertex="1">
          <mxGeometry x="45" y="509" width="90" height="60" as="geometry" />
        </mxCell>
        <mxCell id="9Jtg441duoRpAcbk1e0Q-119" style="edgeStyle=orthogonalEdgeStyle;rounded=0;orthogonalLoop=1;jettySize=auto;html=1;exitX=0.45;exitY=1.006;exitDx=0;exitDy=0;exitPerimeter=0;" parent="1" source="9Jtg441duoRpAcbk1e0Q-95" edge="1">
          <mxGeometry relative="1" as="geometry">
            <mxPoint x="429.9999999999998" y="430" as="targetPoint" />
            <mxPoint x="180" y="610" as="sourcePoint" />
            <Array as="points">
              <mxPoint x="99" y="610" />
              <mxPoint x="90" y="610" />
              <mxPoint x="90" y="620" />
              <mxPoint x="190" y="620" />
              <mxPoint x="190" y="600" />
              <mxPoint x="431" y="600" />
              <mxPoint x="431" y="430" />
            </Array>
          </mxGeometry>
        </mxCell>
        <mxCell id="9Jtg441duoRpAcbk1e0Q-42" value="&lt;h3&gt;course-Id&lt;/h3&gt;" style="text;html=1;align=center;verticalAlign=middle;resizable=0;points=[];autosize=1;strokeColor=none;fillColor=none;" parent="1" vertex="1">
          <mxGeometry x="145" y="509" width="90" height="60" as="geometry" />
        </mxCell>
        <mxCell id="9Jtg441duoRpAcbk1e0Q-43" value="" style="endArrow=none;html=1;rounded=0;" parent="1" edge="1">
          <mxGeometry relative="1" as="geometry">
            <mxPoint x="45" y="627" as="sourcePoint" />
            <mxPoint x="245" y="627" as="targetPoint" />
          </mxGeometry>
        </mxCell>
        <mxCell id="9Jtg441duoRpAcbk1e0Q-44" value="" style="endArrow=none;html=1;rounded=0;" parent="1" edge="1">
          <mxGeometry relative="1" as="geometry">
            <mxPoint x="45" y="697" as="sourcePoint" />
            <mxPoint x="45" y="627" as="targetPoint" />
            <Array as="points">
              <mxPoint x="45" y="667" />
            </Array>
          </mxGeometry>
        </mxCell>
        <mxCell id="9Jtg441duoRpAcbk1e0Q-45" value="" style="endArrow=none;html=1;rounded=0;" parent="1" edge="1">
          <mxGeometry relative="1" as="geometry">
            <mxPoint x="45" y="697" as="sourcePoint" />
            <mxPoint x="245" y="697" as="targetPoint" />
          </mxGeometry>
        </mxCell>
        <mxCell id="9Jtg441duoRpAcbk1e0Q-46" value="" style="endArrow=none;html=1;rounded=0;" parent="1" edge="1">
          <mxGeometry relative="1" as="geometry">
            <mxPoint x="131.85" y="695" as="sourcePoint" />
            <mxPoint x="131.85" y="625" as="targetPoint" />
          </mxGeometry>
        </mxCell>
        <mxCell id="9Jtg441duoRpAcbk1e0Q-47" value="" style="endArrow=none;html=1;rounded=0;" parent="1" edge="1">
          <mxGeometry relative="1" as="geometry">
            <mxPoint x="245" y="697" as="sourcePoint" />
            <mxPoint x="245" y="627" as="targetPoint" />
          </mxGeometry>
        </mxCell>
        <mxCell id="9Jtg441duoRpAcbk1e0Q-52" value="&lt;h3&gt;Name&lt;/h3&gt;" style="text;html=1;align=center;verticalAlign=middle;resizable=0;points=[];autosize=1;strokeColor=none;fillColor=none;" parent="1" vertex="1">
          <mxGeometry x="160" y="632" width="60" height="60" as="geometry" />
        </mxCell>
        <mxCell id="9Jtg441duoRpAcbk1e0Q-53" value="&lt;h2&gt;Id&lt;/h2&gt;" style="text;html=1;align=center;verticalAlign=middle;resizable=0;points=[];autosize=1;strokeColor=none;fillColor=none;" parent="1" vertex="1">
          <mxGeometry x="70" y="630" width="40" height="60" as="geometry" />
        </mxCell>
        <mxCell id="9Jtg441duoRpAcbk1e0Q-54" value="" style="endArrow=none;html=1;rounded=0;" parent="1" edge="1">
          <mxGeometry relative="1" as="geometry">
            <mxPoint x="33.95" y="769" as="sourcePoint" />
            <mxPoint x="473.95" y="769" as="targetPoint" />
          </mxGeometry>
        </mxCell>
        <mxCell id="9Jtg441duoRpAcbk1e0Q-55" value="" style="endArrow=none;html=1;rounded=0;" parent="1" edge="1">
          <mxGeometry relative="1" as="geometry">
            <mxPoint x="33.95" y="839" as="sourcePoint" />
            <mxPoint x="33.95" y="769" as="targetPoint" />
          </mxGeometry>
        </mxCell>
        <mxCell id="9Jtg441duoRpAcbk1e0Q-56" value="" style="endArrow=none;html=1;rounded=0;" parent="1" edge="1">
          <mxGeometry relative="1" as="geometry">
            <mxPoint x="33.95" y="839" as="sourcePoint" />
            <mxPoint x="473.95" y="839" as="targetPoint" />
          </mxGeometry>
        </mxCell>
        <mxCell id="9Jtg441duoRpAcbk1e0Q-57" value="" style="endArrow=none;html=1;rounded=0;" parent="1" edge="1">
          <mxGeometry relative="1" as="geometry">
            <mxPoint x="473.95" y="839" as="sourcePoint" />
            <mxPoint x="473.95" y="769" as="targetPoint" />
            <Array as="points" />
          </mxGeometry>
        </mxCell>
        <mxCell id="9Jtg441duoRpAcbk1e0Q-58" value="" style="endArrow=none;html=1;rounded=0;" parent="1" edge="1">
          <mxGeometry relative="1" as="geometry">
            <mxPoint x="123.95" y="839" as="sourcePoint" />
            <mxPoint x="123.95" y="769" as="targetPoint" />
          </mxGeometry>
        </mxCell>
        <mxCell id="9Jtg441duoRpAcbk1e0Q-59" value="" style="endArrow=none;html=1;rounded=0;" parent="1" edge="1">
          <mxGeometry relative="1" as="geometry">
            <mxPoint x="233.95" y="839" as="sourcePoint" />
            <mxPoint x="233.95" y="769" as="targetPoint" />
          </mxGeometry>
        </mxCell>
        <mxCell id="9Jtg441duoRpAcbk1e0Q-60" value="" style="endArrow=none;html=1;rounded=0;" parent="1" edge="1">
          <mxGeometry relative="1" as="geometry">
            <mxPoint x="353.95" y="839" as="sourcePoint" />
            <mxPoint x="353.95" y="769" as="targetPoint" />
          </mxGeometry>
        </mxCell>
        <mxCell id="9Jtg441duoRpAcbk1e0Q-61" value="&lt;h3&gt;Professer-Id&lt;/h3&gt;" style="text;html=1;align=center;verticalAlign=middle;resizable=0;points=[];autosize=1;strokeColor=none;fillColor=none;" parent="1" vertex="1">
          <mxGeometry x="22.900000000000002" y="772" width="110" height="60" as="geometry" />
        </mxCell>
        <mxCell id="9Jtg441duoRpAcbk1e0Q-62" value="&lt;h3&gt;Name&lt;/h3&gt;" style="text;html=1;align=center;verticalAlign=middle;resizable=0;points=[];autosize=1;strokeColor=none;fillColor=none;" parent="1" vertex="1">
          <mxGeometry x="143.95" y="772" width="60" height="60" as="geometry" />
        </mxCell>
        <mxCell id="9Jtg441duoRpAcbk1e0Q-63" value="&lt;h3&gt;email&lt;/h3&gt;" style="text;html=1;align=center;verticalAlign=middle;resizable=0;points=[];autosize=1;strokeColor=none;fillColor=none;" parent="1" vertex="1">
          <mxGeometry x="263.95" y="772" width="60" height="60" as="geometry" />
        </mxCell>
        <mxCell id="9Jtg441duoRpAcbk1e0Q-123" style="edgeStyle=orthogonalEdgeStyle;rounded=0;orthogonalLoop=1;jettySize=auto;html=1;" parent="1" edge="1">
          <mxGeometry relative="1" as="geometry">
            <mxPoint x="120" y="690" as="targetPoint" />
            <mxPoint x="420" y="770" as="sourcePoint" />
            <Array as="points">
              <mxPoint x="419" y="720" />
              <mxPoint x="121" y="720" />
              <mxPoint x="121" y="690" />
            </Array>
          </mxGeometry>
        </mxCell>
        <mxCell id="9Jtg441duoRpAcbk1e0Q-64" value="&lt;h3&gt;department-Id&lt;/h3&gt;" style="text;html=1;align=center;verticalAlign=middle;resizable=0;points=[];autosize=1;strokeColor=none;fillColor=none;" parent="1" vertex="1">
          <mxGeometry x="358.95" y="772" width="120" height="60" as="geometry" />
        </mxCell>
        <mxCell id="9Jtg441duoRpAcbk1e0Q-65" value="" style="endArrow=none;html=1;rounded=0;" parent="1" edge="1">
          <mxGeometry relative="1" as="geometry">
            <mxPoint x="40" y="889" as="sourcePoint" />
            <mxPoint x="360" y="889" as="targetPoint" />
          </mxGeometry>
        </mxCell>
        <mxCell id="9Jtg441duoRpAcbk1e0Q-66" value="" style="endArrow=none;html=1;rounded=0;" parent="1" source="9Jtg441duoRpAcbk1e0Q-75" edge="1">
          <mxGeometry relative="1" as="geometry">
            <mxPoint x="45" y="959" as="sourcePoint" />
            <mxPoint x="45" y="889" as="targetPoint" />
          </mxGeometry>
        </mxCell>
        <mxCell id="9Jtg441duoRpAcbk1e0Q-67" value="" style="endArrow=none;html=1;rounded=0;" parent="1" edge="1">
          <mxGeometry relative="1" as="geometry">
            <mxPoint x="40" y="959" as="sourcePoint" />
            <mxPoint x="360" y="959" as="targetPoint" />
          </mxGeometry>
        </mxCell>
        <mxCell id="9Jtg441duoRpAcbk1e0Q-69" value="" style="endArrow=none;html=1;rounded=0;" parent="1" edge="1">
          <mxGeometry relative="1" as="geometry">
            <mxPoint x="135" y="959" as="sourcePoint" />
            <mxPoint x="135" y="889" as="targetPoint" />
          </mxGeometry>
        </mxCell>
        <mxCell id="9Jtg441duoRpAcbk1e0Q-70" value="" style="endArrow=none;html=1;rounded=0;" parent="1" edge="1">
          <mxGeometry relative="1" as="geometry">
            <mxPoint x="245" y="959" as="sourcePoint" />
            <mxPoint x="245" y="889" as="targetPoint" />
          </mxGeometry>
        </mxCell>
        <mxCell id="9Jtg441duoRpAcbk1e0Q-71" value="" style="endArrow=none;html=1;rounded=0;" parent="1" edge="1">
          <mxGeometry relative="1" as="geometry">
            <mxPoint x="360" y="959" as="sourcePoint" />
            <mxPoint x="360" y="889" as="targetPoint" />
          </mxGeometry>
        </mxCell>
        <mxCell id="9Jtg441duoRpAcbk1e0Q-72" value="&lt;h3&gt;courses-Id&lt;/h3&gt;" style="text;html=1;align=center;verticalAlign=middle;resizable=0;points=[];autosize=1;strokeColor=none;fillColor=none;" parent="1" vertex="1">
          <mxGeometry x="140" y="892" width="90" height="60" as="geometry" />
        </mxCell>
        <mxCell id="9Jtg441duoRpAcbk1e0Q-73" value="&lt;h3&gt;professor-Id&lt;/h3&gt;" style="text;html=1;align=center;verticalAlign=middle;resizable=0;points=[];autosize=1;strokeColor=none;fillColor=none;" parent="1" vertex="1">
          <mxGeometry x="250" y="892" width="110" height="60" as="geometry" />
        </mxCell>
        <mxCell id="9Jtg441duoRpAcbk1e0Q-75" value="&lt;h3&gt;courses name&lt;/h3&gt;" style="text;html=1;align=center;verticalAlign=middle;resizable=0;points=[];autosize=1;strokeColor=none;fillColor=none;" parent="1" vertex="1">
          <mxGeometry x="30" y="892" width="120" height="60" as="geometry" />
        </mxCell>
        <mxCell id="9Jtg441duoRpAcbk1e0Q-78" value="" style="endArrow=none;html=1;rounded=0;" parent="1" edge="1">
          <mxGeometry relative="1" as="geometry">
            <mxPoint x="40" y="889" as="sourcePoint" />
            <mxPoint x="40" y="959" as="targetPoint" />
          </mxGeometry>
        </mxCell>
        <mxCell id="9Jtg441duoRpAcbk1e0Q-79" value="" style="endArrow=none;html=1;rounded=0;" parent="1" edge="1">
          <mxGeometry relative="1" as="geometry">
            <mxPoint x="37.9" y="1019" as="sourcePoint" />
            <mxPoint x="580" y="1019" as="targetPoint" />
          </mxGeometry>
        </mxCell>
        <mxCell id="9Jtg441duoRpAcbk1e0Q-80" value="" style="endArrow=none;html=1;rounded=0;" parent="1" edge="1">
          <mxGeometry relative="1" as="geometry">
            <mxPoint x="37.9" y="1089" as="sourcePoint" />
            <mxPoint x="37.9" y="1019" as="targetPoint" />
          </mxGeometry>
        </mxCell>
        <mxCell id="9Jtg441duoRpAcbk1e0Q-81" value="" style="endArrow=none;html=1;rounded=0;" parent="1" edge="1">
          <mxGeometry relative="1" as="geometry">
            <mxPoint x="37.9" y="1089" as="sourcePoint" />
            <mxPoint x="580" y="1089" as="targetPoint" />
          </mxGeometry>
        </mxCell>
        <mxCell id="9Jtg441duoRpAcbk1e0Q-83" value="" style="endArrow=none;html=1;rounded=0;" parent="1" edge="1">
          <mxGeometry relative="1" as="geometry">
            <mxPoint x="127.9" y="1089" as="sourcePoint" />
            <mxPoint x="127.9" y="1019" as="targetPoint" />
          </mxGeometry>
        </mxCell>
        <mxCell id="9Jtg441duoRpAcbk1e0Q-84" value="" style="endArrow=none;html=1;rounded=0;" parent="1" edge="1">
          <mxGeometry relative="1" as="geometry">
            <mxPoint x="237.9" y="1089" as="sourcePoint" />
            <mxPoint x="237.9" y="1019" as="targetPoint" />
          </mxGeometry>
        </mxCell>
        <mxCell id="9Jtg441duoRpAcbk1e0Q-85" value="" style="endArrow=none;html=1;rounded=0;" parent="1" edge="1">
          <mxGeometry relative="1" as="geometry">
            <mxPoint x="357.9" y="1089" as="sourcePoint" />
            <mxPoint x="357.9" y="1019" as="targetPoint" />
          </mxGeometry>
        </mxCell>
        <mxCell id="9Jtg441duoRpAcbk1e0Q-86" value="&lt;h3&gt;ID&lt;/h3&gt;" style="text;html=1;align=center;verticalAlign=middle;resizable=0;points=[];autosize=1;strokeColor=none;fillColor=none;" parent="1" vertex="1">
          <mxGeometry x="57.9" y="1022" width="40" height="60" as="geometry" />
        </mxCell>
        <mxCell id="9Jtg441duoRpAcbk1e0Q-87" value="&lt;h3&gt;student-Id&lt;/h3&gt;" style="text;html=1;align=center;verticalAlign=middle;resizable=0;points=[];autosize=1;strokeColor=none;fillColor=none;" parent="1" vertex="1">
          <mxGeometry x="132.9" y="1022" width="90" height="60" as="geometry" />
        </mxCell>
        <mxCell id="9Jtg441duoRpAcbk1e0Q-88" value="&lt;h3&gt;Name&lt;/h3&gt;" style="text;html=1;align=center;verticalAlign=middle;resizable=0;points=[];autosize=1;strokeColor=none;fillColor=none;" parent="1" vertex="1">
          <mxGeometry x="267.9" y="1022" width="60" height="60" as="geometry" />
        </mxCell>
        <mxCell id="9Jtg441duoRpAcbk1e0Q-89" value="&lt;h3&gt;SSN&lt;/h3&gt;" style="text;html=1;align=center;verticalAlign=middle;resizable=0;points=[];autosize=1;strokeColor=none;fillColor=none;" parent="1" vertex="1">
          <mxGeometry x="397.9" y="1022" width="50" height="60" as="geometry" />
        </mxCell>
        <mxCell id="9Jtg441duoRpAcbk1e0Q-90" value="" style="endArrow=none;html=1;rounded=0;" parent="1" edge="1">
          <mxGeometry relative="1" as="geometry">
            <mxPoint x="480" y="1019" as="sourcePoint" />
            <mxPoint x="480" y="1089" as="targetPoint" />
          </mxGeometry>
        </mxCell>
        <mxCell id="9Jtg441duoRpAcbk1e0Q-91" value="" style="endArrow=none;html=1;rounded=0;" parent="1" edge="1">
          <mxGeometry relative="1" as="geometry">
            <mxPoint x="580" y="1089" as="sourcePoint" />
            <mxPoint x="580" y="1019" as="targetPoint" />
          </mxGeometry>
        </mxCell>
        <mxCell id="9Jtg441duoRpAcbk1e0Q-92" value="&lt;h3&gt;Birth-day&lt;/h3&gt;" style="text;html=1;align=center;verticalAlign=middle;resizable=0;points=[];autosize=1;strokeColor=none;fillColor=none;" parent="1" vertex="1">
          <mxGeometry x="485" y="1022" width="90" height="60" as="geometry" />
        </mxCell>
        <mxCell id="9Jtg441duoRpAcbk1e0Q-93" value="&lt;h2&gt;Students&lt;/h2&gt;" style="text;html=1;align=center;verticalAlign=middle;resizable=0;points=[];autosize=1;strokeColor=none;fillColor=none;" parent="1" vertex="1">
          <mxGeometry x="35" y="303" width="100" height="60" as="geometry" />
        </mxCell>
        <mxCell id="9Jtg441duoRpAcbk1e0Q-94" value="&lt;h2&gt;Has-course&lt;/h2&gt;" style="text;html=1;align=center;verticalAlign=middle;resizable=0;points=[];autosize=1;strokeColor=none;fillColor=none;" parent="1" vertex="1">
          <mxGeometry x="35" y="440" width="120" height="60" as="geometry" />
        </mxCell>
        <mxCell id="9Jtg441duoRpAcbk1e0Q-95" value="&lt;h2&gt;Department&lt;/h2&gt;" style="text;html=1;align=center;verticalAlign=middle;resizable=0;points=[];autosize=1;strokeColor=none;fillColor=none;" parent="1" vertex="1">
          <mxGeometry x="40.00000000000001" y="570" width="120" height="60" as="geometry" />
        </mxCell>
        <mxCell id="9Jtg441duoRpAcbk1e0Q-96" value="&lt;h2&gt;Professors&lt;/h2&gt;" style="text;html=1;align=center;verticalAlign=middle;resizable=0;points=[];autosize=1;strokeColor=none;fillColor=none;" parent="1" vertex="1">
          <mxGeometry x="30" y="710" width="120" height="60" as="geometry" />
        </mxCell>
        <mxCell id="9Jtg441duoRpAcbk1e0Q-98" value="&lt;h2&gt;courses&lt;/h2&gt;" style="text;html=1;align=center;verticalAlign=middle;resizable=0;points=[];autosize=1;strokeColor=none;fillColor=none;" parent="1" vertex="1">
          <mxGeometry x="30" y="840" width="90" height="60" as="geometry" />
        </mxCell>
        <mxCell id="9Jtg441duoRpAcbk1e0Q-99" value="&lt;h2&gt;Enrollment&lt;/h2&gt;" style="text;html=1;align=center;verticalAlign=middle;resizable=0;points=[];autosize=1;strokeColor=none;fillColor=none;" parent="1" vertex="1">
          <mxGeometry x="30" y="962" width="120" height="60" as="geometry" />
        </mxCell>
        <mxCell id="9Jtg441duoRpAcbk1e0Q-100" value="" style="endArrow=none;html=1;rounded=0;" parent="1" edge="1">
          <mxGeometry relative="1" as="geometry">
            <mxPoint x="143.95" y="939" as="sourcePoint" />
            <mxPoint x="230" y="939" as="targetPoint" />
          </mxGeometry>
        </mxCell>
        <mxCell id="9Jtg441duoRpAcbk1e0Q-103" value="" style="endArrow=none;html=1;rounded=0;" parent="1" edge="1">
          <mxGeometry relative="1" as="geometry">
            <mxPoint x="50" y="1069" as="sourcePoint" />
            <mxPoint x="120" y="1069" as="targetPoint" />
          </mxGeometry>
        </mxCell>
        <mxCell id="9Jtg441duoRpAcbk1e0Q-104" value="" style="endArrow=none;dashed=1;html=1;rounded=0;" parent="1" edge="1">
          <mxGeometry width="50" height="50" relative="1" as="geometry">
            <mxPoint x="263.95" y="939" as="sourcePoint" />
            <mxPoint x="343.95" y="939" as="targetPoint" />
            <Array as="points">
              <mxPoint x="273.95" y="939" />
            </Array>
          </mxGeometry>
        </mxCell>
        <mxCell id="9Jtg441duoRpAcbk1e0Q-105" value="" style="endArrow=none;dashed=1;html=1;rounded=0;" parent="1" edge="1">
          <mxGeometry width="50" height="50" relative="1" as="geometry">
            <mxPoint x="132.89999999999998" y="1069" as="sourcePoint" />
            <mxPoint x="232.89999999999998" y="1069" as="targetPoint" />
          </mxGeometry>
        </mxCell>
        <mxCell id="9Jtg441duoRpAcbk1e0Q-106" value="" style="endArrow=none;html=1;rounded=0;" parent="1" edge="1">
          <mxGeometry relative="1" as="geometry">
            <mxPoint x="60" y="677" as="sourcePoint" />
            <mxPoint x="125" y="677" as="targetPoint" />
          </mxGeometry>
        </mxCell>
        <mxCell id="9Jtg441duoRpAcbk1e0Q-107" value="" style="endArrow=none;html=1;rounded=0;" parent="1" edge="1">
          <mxGeometry relative="1" as="geometry">
            <mxPoint x="35" y="819" as="sourcePoint" />
            <mxPoint x="125" y="819" as="targetPoint" />
          </mxGeometry>
        </mxCell>
        <mxCell id="9Jtg441duoRpAcbk1e0Q-109" value="" style="endArrow=none;html=1;rounded=0;" parent="1" edge="1">
          <mxGeometry relative="1" as="geometry">
            <mxPoint x="127.9" y="410" as="sourcePoint" />
            <mxPoint x="227.9" y="410" as="targetPoint" />
          </mxGeometry>
        </mxCell>
        <mxCell id="9Jtg441duoRpAcbk1e0Q-111" value="" style="endArrow=none;html=1;rounded=0;" parent="1" edge="1">
          <mxGeometry relative="1" as="geometry">
            <mxPoint x="135" y="556" as="sourcePoint" />
            <mxPoint x="235" y="556" as="targetPoint" />
          </mxGeometry>
        </mxCell>
        <mxCell id="9Jtg441duoRpAcbk1e0Q-112" value="" style="endArrow=none;html=1;rounded=0;" parent="1" edge="1">
          <mxGeometry relative="1" as="geometry">
            <mxPoint x="40" y="556" as="sourcePoint" />
            <mxPoint x="130" y="556" as="targetPoint" />
          </mxGeometry>
        </mxCell>
        <mxCell id="9Jtg441duoRpAcbk1e0Q-113" value="" style="endArrow=none;dashed=1;html=1;rounded=0;" parent="1" edge="1">
          <mxGeometry width="50" height="50" relative="1" as="geometry">
            <mxPoint x="373.95" y="410" as="sourcePoint" />
            <mxPoint x="463.95" y="410" as="targetPoint" />
          </mxGeometry>
        </mxCell>
        <mxCell id="9Jtg441duoRpAcbk1e0Q-114" value="" style="endArrow=none;dashed=1;html=1;dashPattern=1 3;strokeWidth=2;rounded=0;" parent="1" edge="1">
          <mxGeometry width="50" height="50" relative="1" as="geometry">
            <mxPoint x="375" y="819" as="sourcePoint" />
            <mxPoint x="455" y="819" as="targetPoint" />
          </mxGeometry>
        </mxCell>
        <mxCell id="9Jtg441duoRpAcbk1e0Q-129" value="" style="endArrow=none;html=1;rounded=0;exitX=0.716;exitY=1.083;exitDx=0;exitDy=0;exitPerimeter=0;" parent="1" source="9Jtg441duoRpAcbk1e0Q-87" edge="1">
          <mxGeometry relative="1" as="geometry">
            <mxPoint x="250" y="1330" as="sourcePoint" />
            <mxPoint x="190" y="360" as="targetPoint" />
            <Array as="points">
              <mxPoint x="197" y="1160" />
              <mxPoint x="640" y="1160" />
              <mxPoint x="640" y="310" />
              <mxPoint x="190" y="310" />
            </Array>
          </mxGeometry>
        </mxCell>
        <mxCell id="9Jtg441duoRpAcbk1e0Q-131" value="" style="endArrow=none;html=1;rounded=0;exitX=0.804;exitY=0.033;exitDx=0;exitDy=0;exitPerimeter=0;" parent="1" source="9Jtg441duoRpAcbk1e0Q-98" edge="1">
          <mxGeometry relative="1" as="geometry">
            <mxPoint x="160" y="862" as="sourcePoint" />
            <mxPoint x="323.95" y="892" as="targetPoint" />
            <Array as="points">
              <mxPoint x="140" y="850" />
              <mxPoint x="200" y="862" />
              <mxPoint x="283.95" y="862" />
              <mxPoint x="323.95" y="862" />
            </Array>
          </mxGeometry>
        </mxCell>
        <mxCell id="9Jtg441duoRpAcbk1e0Q-132" value="" style="endArrow=none;html=1;rounded=0;" parent="1" edge="1">
          <mxGeometry relative="1" as="geometry">
            <mxPoint x="250" y="540" as="sourcePoint" />
            <mxPoint x="200" y="890" as="targetPoint" />
            <Array as="points">
              <mxPoint x="350" y="540" />
              <mxPoint x="500" y="540" />
              <mxPoint x="500" y="800" />
              <mxPoint x="500" y="880" />
              <mxPoint x="200" y="870" />
            </Array>
          </mxGeometry>
        </mxCell>
      </root>
    </mxGraphModel>
  </diagram>
</mxfile>
